<?xml version="1.0" encoding="UTF-8"?> <svg xmlns="http://www.w3.org/2000/svg" viewBox="0 0 449.76 50.54"><defs><style>.cls-1{fill:#1d1d1b;}</style></defs><g id="Calque_4" data-name="Calque 4"><path class="cls-1" d="M15.22,49.54A18.49,18.49,0,0,1,4,45.79l1.4-1.92a15.94,15.94,0,0,0,9.89,3.46c5.61,0,9.6-3.22,9.6-9.5V34.27a12.19,12.19,0,0,1-10.23,5.67A11.59,11.59,0,0,1,2.88,28.42v-.1A11.65,11.65,0,0,1,14.64,16.7a12.19,12.19,0,0,1,10.23,5.48v-4.9h2.35V38C27.22,45.41,22.18,49.54,15.22,49.54ZM25,28.27C25,22.61,20,19,14.88,19s-9.46,3.55-9.46,9.27v.09a9.3,9.3,0,0,0,9.46,9.36C20,37.68,25,33.94,25,28.37Z"></path><path class="cls-1" d="M52.94,41.76V37.68a11.12,11.12,0,0,1-9.36,4.66c-4.56,0-9.45-2.59-9.45-7.68v-.1c0-5.09,4.37-8,10.7-8a29.17,29.17,0,0,1,8.11,1.06V26.59c0-4.94-3-7.49-8.06-7.49a16.43,16.43,0,0,0-7.68,2L36.34,19A19.58,19.58,0,0,1,45,16.9c6.29,0,10.23,3.26,10.23,9.6V41.76ZM53,29.81a32.35,32.35,0,0,0-8.3-1.1c-5.19,0-8.07,2.3-8.07,5.71v.09c0,3.56,3.36,5.62,7.11,5.62,5,0,9.26-3.07,9.26-7.54Z"></path><path class="cls-1" d="M64,41.76v-35h2.35v35Z"></path><path class="cls-1" d="M86.06,40.13a11,11,0,0,0,8.41-3.84l1.63,1.44A12.88,12.88,0,0,1,86,42.34c-6.43,0-12-5.14-12-12.77v-.1c0-7.1,5-12.77,11.61-12.77,6.87,0,11.24,5.57,11.24,12.82v.1a5.26,5.26,0,0,1,0,.86H76.46C76.9,36.58,81.26,40.13,86.06,40.13Zm8.21-11.76c-.33-4.95-3.17-9.51-8.78-9.51-4.85,0-8.59,4.08-9,9.51Z"></path><path class="cls-1" d="M116.64,19.49C111,19.49,106,23.76,106,31.73v10h-2.35V17.28H106v7c1.92-4.37,6-7.54,10.85-7.34v2.59Z"></path><path class="cls-1" d="M122.93,10.9V7.68h2.93V10.9Zm.29,30.86V17.28h2.35V41.76Z"></path><path class="cls-1" d="M145.25,40.13a11,11,0,0,0,8.4-3.84l1.63,1.44a12.86,12.86,0,0,1-10.13,4.61c-6.43,0-12-5.14-12-12.77v-.1c0-7.1,5-12.77,11.62-12.77,6.86,0,11.23,5.57,11.23,12.82v.1a5.26,5.26,0,0,1-.05.86h-20.3C136.08,36.58,140.45,40.13,145.25,40.13Zm8.21-11.76c-.34-4.95-3.17-9.51-8.79-9.51-4.85,0-8.59,4.08-9,9.51Z"></path><path class="cls-1" d="M202,13.49H183v8.64h16.85v5.33H183v9h19.25v5.33h-25.1V8.16H202Z"></path><path class="cls-1" d="M225.65,16.42h6.09L221.38,42h-5.24L205.73,16.42H212L218.78,35Z"></path><path class="cls-1" d="M251,41.76V38.64a10.69,10.69,0,0,1-3.31,2.59,10.4,10.4,0,0,1-4.9,1.06,11.79,11.79,0,0,1-3.45-.5,8.74,8.74,0,0,1-2.86-1.49,7.22,7.22,0,0,1-2.71-5.83v-.1a7.83,7.83,0,0,1,.77-3.6,7,7,0,0,1,2.13-2.54,9.49,9.49,0,0,1,3.27-1.52,16.16,16.16,0,0,1,4.1-.5,22.72,22.72,0,0,1,3.91.29,23.41,23.41,0,0,1,3.1.77v-.63a5,5,0,0,0-1.61-4,6.87,6.87,0,0,0-4.63-1.39,15.38,15.38,0,0,0-3.84.43,25.35,25.35,0,0,0-3.41,1.15L236,18.15a25.85,25.85,0,0,1,4.32-1.54,21.46,21.46,0,0,1,5.32-.58q5.67,0,8.4,2.81c1.83,1.87,2.74,4.51,2.74,7.9v15ZM251.13,31a14.27,14.27,0,0,0-2.61-.72,17.2,17.2,0,0,0-3.19-.29,7.52,7.52,0,0,0-4.28,1.06,3.44,3.44,0,0,0-1.53,3v.1A3.15,3.15,0,0,0,240.93,37a6.08,6.08,0,0,0,3.48,1,9.12,9.12,0,0,0,2.67-.38,7,7,0,0,0,2.13-1.08,5.06,5.06,0,0,0,1.42-1.68,4.7,4.7,0,0,0,.5-2.19Z"></path><path class="cls-1" d="M295.58,16.42h6.1L291.31,42h-5.23L275.66,16.42h6.24L288.72,35Z"></path><path class="cls-1" d="M320.93,41.76V38.64a10.73,10.73,0,0,1-3.32,2.59,10.33,10.33,0,0,1-4.89,1.06,11.86,11.86,0,0,1-3.46-.5,8.59,8.59,0,0,1-2.85-1.49,7.26,7.26,0,0,1-2.72-5.83v-.1a8,8,0,0,1,.77-3.6,7,7,0,0,1,2.14-2.54,9.53,9.53,0,0,1,3.26-1.52,16.24,16.24,0,0,1,4.11-.5,22.8,22.8,0,0,1,3.91.29,23.26,23.26,0,0,1,3.09.77v-.63a5,5,0,0,0-1.6-4,6.9,6.9,0,0,0-4.64-1.39,15.38,15.38,0,0,0-3.84.43,25.23,25.23,0,0,0-3.4,1.15l-1.59-4.65a26.5,26.5,0,0,1,4.32-1.54,21.54,21.54,0,0,1,5.33-.58q5.67,0,8.4,2.81c1.82,1.87,2.74,4.51,2.74,7.9v15ZM321.07,31a14.62,14.62,0,0,0-2.62-.72,17.12,17.12,0,0,0-3.19-.29A7.49,7.49,0,0,0,311,31.06a3.45,3.45,0,0,0-1.54,3v.1A3.16,3.16,0,0,0,310.87,37a6,6,0,0,0,3.48,1,9,9,0,0,0,2.66-.38,7.06,7.06,0,0,0,2.14-1.08,5.06,5.06,0,0,0,1.42-1.68,4.83,4.83,0,0,0,.5-2.19Z"></path><path class="cls-1" d="M350.21,16.42h5.85V41.76h-5.85v-4A12.52,12.52,0,0,1,347.09,41a8,8,0,0,1-4.78,1.33,8.46,8.46,0,0,1-6.66-2.64,10.32,10.32,0,0,1-2.34-7.1V16.42h5.86V30.78a6.73,6.73,0,0,0,1.4,4.58,5,5,0,0,0,4,1.6,5.42,5.42,0,0,0,4.1-1.65,6.46,6.46,0,0,0,1.57-4.62Z"></path><path class="cls-1" d="M370.41,33.83a3.15,3.15,0,0,0,.82,2.43,3.27,3.27,0,0,0,2.3.75,8,8,0,0,0,3.6-.86V40.9a10.09,10.09,0,0,1-2.35,1,11.29,11.29,0,0,1-2.88.33,10.57,10.57,0,0,1-2.94-.38,6.12,6.12,0,0,1-2.35-1.25,5.52,5.52,0,0,1-1.52-2.29,10,10,0,0,1-.53-3.53V21.36h-3.22V16.42h3.22v-7h5.85v7h6.82v4.94h-6.82Z"></path><path class="cls-1" d="M383.13,12.53V7h6.29v5.52Zm.24,29.23V16.42h5.86V41.76Z"></path><path class="cls-1" d="M403.68,35.93a7.22,7.22,0,0,0,4.8,1.66,8.52,8.52,0,0,0,3.74-.77,12.05,12.05,0,0,0,3.12-2.26l3.41,3A14,14,0,0,1,414.4,41a12.89,12.89,0,0,1-6,1.3,13.51,13.51,0,0,1-5.11-1,12.27,12.27,0,0,1-6.89-6.84,14,14,0,0,1-1-5.4,14.51,14.51,0,0,1,.91-5.14,13,13,0,0,1,2.57-4.2A12.36,12.36,0,0,1,402.77,17a11.5,11.5,0,0,1,5-1.06,12.12,12.12,0,0,1,5.3,1.1,11,11,0,0,1,3.79,3,12.82,12.82,0,0,1,2.28,4.37,17.74,17.74,0,0,1,.77,5.23c0,.26,0,.51,0,.77s0,.53-.07.81H401.18A7.61,7.61,0,0,0,403.68,35.93Zm10.46-8.62a10.06,10.06,0,0,0-.62-2.61,6.7,6.7,0,0,0-1.3-2.11,6,6,0,0,0-1.94-1.42,6.05,6.05,0,0,0-2.57-.53,5.87,5.87,0,0,0-4.44,1.85,8.36,8.36,0,0,0-2.14,4.82Z"></path><path class="cls-1" d="M431.61,41.76h-5.85V16.42h5.85v5.71A11.18,11.18,0,0,1,435,17.52a8.15,8.15,0,0,1,5.57-1.58v6.14h-.34a9.36,9.36,0,0,0-3.5.63A7.28,7.28,0,0,0,434,24.58a8.34,8.34,0,0,0-1.77,3.14,14,14,0,0,0-.63,4.39Z"></path></g></svg> 